<?xml version="1.0" standalone="no"?>
<!DOCTYPE svg PUBLIC "-//W3C//DTD SVG 20010904//EN"
 "http://www.w3.org/TR/2001/REC-SVG-20010904/DTD/svg10.dtd">
<svg version="1.0" xmlns="http://www.w3.org/2000/svg"
 width="768.000000pt" height="768.000000pt" viewBox="0 0 768.000000 768.000000"
 preserveAspectRatio="xMidYMid meet">
<metadata>
Created by potrace 1.11, written by Peter Selinger 2001-2013
</metadata>
<g transform="translate(0.000000,768.000000) scale(0.100000,-0.100000)"
fill="#000000" stroke="none">
<path d="M3605 7363 c-44 -2 -84 -8 -90 -14 -7 -7 -4 -8 8 -4 10 4 17 2 17 -4
0 -6 -16 -11 -37 -10 -31 0 -34 2 -18 9 15 6 9 8 -25 8 -25 0 -35 -3 -22 -5
34 -7 26 -21 -15 -28 -21 -4 -60 -15 -88 -25 -35 -13 -91 -20 -190 -25 -201
-9 -223 -11 -290 -29 -154 -40 -447 -151 -655 -248 -223 -104 -567 -330 -715
-470 -22 -21 -43 -38 -47 -38 -4 0 -4 -7 -1 -17 4 -11 3 -14 -6 -9 -13 8 -61
-29 -61 -48 0 -5 6 -2 13 7 6 10 26 21 42 26 21 5 29 13 27 25 -3 15 -1 16 12
5 13 -12 9 -19 -27 -52 -23 -20 -48 -35 -54 -32 -7 2 -13 0 -13 -5 0 -6 -4
-10 -10 -10 -5 0 -10 8 -10 17 0 22 -10 11 -15 -17 -3 -17 -1 -21 13 -16 13 5
13 3 -3 -9 -18 -14 -20 -14 -27 2 -6 17 -7 17 -7 1 -1 -10 -8 -18 -17 -18 -8
0 -31 -12 -50 -26 -35 -27 -198 -216 -250 -290 -16 -22 -49 -67 -73 -100 -29
-38 -44 -67 -43 -84 1 -18 -1 -21 -7 -11 -29 45 -425 -689 -466 -864 -1 -5 -5
-17 -8 -25 -3 -8 -11 -42 -17 -74 -7 -33 -19 -78 -27 -100 -8 -23 -16 -65 -19
-93 -4 -44 -2 -52 11 -47 8 4 15 2 15 -2 -1 -26 -22 -99 -31 -104 -5 -4 -10
-18 -11 -33 -2 -28 -13 -36 -21 -14 -3 6 -6 2 -6 -11 -1 -16 3 -21 12 -16 9 6
9 4 -1 -7 -6 -7 -12 -28 -12 -45 0 -18 -5 -36 -10 -39 -6 -4 -9 -19 -8 -33 1
-15 -1 -33 -5 -39 -4 -7 -10 -43 -12 -80 -2 -37 -7 -111 -11 -163 -10 -138 -7
-474 6 -587 6 -54 13 -123 16 -153 17 -187 117 -544 222 -795 47 -113 138
-295 192 -385 28 -46 50 -85 50 -87 0 -7 121 -183 126 -183 3 0 -8 19 -25 43
-69 101 -167 271 -227 395 -35 73 -64 136 -64 141 0 5 -18 48 -39 97 -22 49
-49 127 -61 174 -12 47 -25 90 -28 95 -4 6 -8 19 -9 30 -2 11 -12 54 -23 95
-10 41 -21 95 -24 120 -2 25 -9 63 -15 85 -5 22 -12 59 -15 82 -3 23 -10 77
-16 120 -25 180 -32 548 -14 758 37 440 171 894 375 1272 360 666 933 1138
1532 1264 121 25 325 35 455 20 103 -11 223 -35 252 -50 9 -5 31 -12 49 -16
34 -7 71 -32 71 -48 0 -5 -9 -5 -20 -2 -12 4 -20 2 -20 -6 0 -12 -20 -31 -54
-50 -11 -7 -16 -7 -12 -1 7 11 -83 10 -102 -1 -7 -5 -9 1 -6 18 l4 25 -20 -20
c-22 -22 -25 -22 -55 -11 -14 6 -24 3 -31 -8 -10 -12 -15 -13 -27 -3 -10 9
-28 11 -49 7 -26 -5 -37 -14 -46 -37 -7 -20 -16 -29 -25 -25 -8 3 -20 0 -26
-6 -13 -13 -149 -19 -157 -6 -3 5 -10 9 -15 9 -6 0 -7 -4 -4 -10 6 -9 1 -11
-37 -14 -7 -1 -15 -4 -18 -8 -3 -3 -23 -7 -45 -9 -22 -1 -44 -6 -50 -10 -17
-12 -124 -41 -133 -35 -5 3 -39 -5 -75 -19 -36 -13 -68 -20 -72 -17 -3 4 -9 2
-13 -3 -11 -16 -72 -45 -93 -45 -10 0 -19 -3 -19 -8 0 -7 -120 -72 -134 -72
-11 0 -152 -96 -226 -153 -88 -68 -274 -234 -331 -293 -94 -99 -233 -286 -316
-424 -265 -443 -405 -944 -407 -1460 -1 -186 11 -371 21 -327 5 21 12 21 39 2
12 -8 24 -11 28 -8 3 3 6 -2 7 -13 2 -45 85 -429 97 -448 3 -6 8 -20 9 -31 6
-34 44 -147 68 -200 12 -27 25 -62 29 -77 3 -15 13 -33 21 -42 8 -8 15 -19 15
-24 0 -13 60 -131 70 -137 9 -6 -32 118 -42 125 -16 12 -49 164 -48 218 2 54
-15 141 -30 152 -3 3 -16 46 -29 95 -21 86 -21 125 0 125 11 0 10 178 -1 185
-4 2 -11 33 -15 67 -5 35 -9 66 -9 70 -1 3 -4 10 -8 14 -11 10 -10 112 1 118
16 10 28 -18 36 -78 7 -58 15 -85 35 -116 5 -8 16 -32 26 -52 11 -27 22 -37
35 -35 35 4 67 -89 75 -216 2 -34 6 -68 9 -74 2 -7 0 -13 -6 -13 -7 0 -8 -7
-4 -17 4 -10 8 -24 9 -31 1 -7 10 -22 19 -33 13 -15 15 -24 7 -39 -14 -26 -14
-25 30 -71 22 -23 40 -50 40 -59 0 -31 11 -50 29 -50 10 0 30 -22 48 -54 42
-74 48 -95 29 -102 -19 -7 -21 -26 -3 -23 30 4 41 -3 19 -12 -21 -8 -22 -11
-8 -24 8 -8 26 -15 40 -15 39 0 41 -19 5 -50 -24 -21 -29 -29 -17 -30 16 0
116 53 162 87 28 20 34 48 11 57 -24 9 -17 31 10 32 20 2 23 -1 15 -11 -9 -11
-4 -45 7 -45 3 0 17 7 31 14 55 30 181 87 189 85 9 -2 38 7 73 24 24 12 25 17
26 112 3 214 48 466 120 669 25 70 26 100 2 91 -23 -9 -70 128 -53 155 7 11
65 -17 65 -32 0 -4 6 -8 14 -8 7 0 21 -11 30 -25 9 -14 21 -23 25 -20 5 3 11
-2 14 -9 7 -17 45 -18 65 -2 10 7 16 6 23 -6 5 -9 23 -24 41 -32 28 -14 33
-14 48 -1 9 8 24 15 33 15 10 0 17 10 19 28 3 30 3 30 96 6 70 -19 92 -44 92
-108 0 -44 9 -66 26 -66 19 0 33 -31 27 -62 -4 -23 -1 -27 29 -33 18 -4 38
-12 45 -17 7 -6 38 -7 70 -4 90 8 94 8 113 -9 18 -16 22 -15 72 10 29 15 60
31 68 35 8 4 16 21 18 39 2 23 11 35 28 43 20 10 24 17 19 37 -3 14 -13 32
-22 38 -18 14 -15 20 19 37 14 7 27 26 32 48 5 21 18 40 30 46 12 5 30 26 41
46 17 31 18 41 7 81 -7 25 -12 53 -12 63 -1 27 -47 55 -81 48 -22 -4 -31 -1
-39 14 -6 11 -22 23 -36 26 -32 8 -50 40 -33 60 7 8 20 12 30 9 12 -4 21 -1
25 9 8 20 23 20 44 1 10 -9 27 -17 39 -20 11 -2 31 -11 43 -19 25 -18 64 -21
72 -7 3 5 8 28 10 51 2 30 10 48 25 60 17 12 21 22 16 43 -6 22 -4 27 12 27
15 0 22 13 33 63 8 34 13 88 12 120 -1 49 1 57 13 47 8 -6 26 -10 41 -8 23 2
29 10 41 51 12 40 16 47 28 37 16 -13 45 -7 45 9 0 5 -11 12 -25 15 -36 9 -31
28 8 26 69 -4 87 0 87 18 0 14 2 15 10 2 6 -10 10 -11 10 -2 0 6 6 11 12 10 8
-2 12 7 10 25 -3 20 1 27 15 29 10 1 25 2 33 4 8 1 21 2 28 3 7 1 10 6 7 11
-3 6 0 10 9 10 8 0 16 5 18 12 6 18 61 -5 73 -30 5 -12 17 -22 26 -22 9 0 20
-7 23 -16 8 -21 8 -24 -5 -24 -5 0 -8 4 -5 9 12 19 -36 19 -52 0 -9 -10 -26
-19 -39 -19 -21 0 -53 -24 -53 -40 0 -13 89 -16 111 -5 11 6 16 14 13 18 -4 4
0 7 8 7 9 0 18 5 20 11 2 7 13 9 26 5 27 -9 27 -53 0 -70 -10 -6 -18 -16 -18
-23 0 -9 -17 -13 -47 -14 -27 -1 -68 -3 -93 -3 -64 -3 -90 4 -90 22 0 10 -10
1 -25 -20 -30 -44 -32 -58 -6 -51 10 2 18 12 17 21 -2 25 40 28 53 3 6 -10 8
-21 3 -24 -4 -2 -2 -2 5 -1 6 1 24 -1 39 -5 l28 -7 -22 -22 c-23 -23 -29 -38
-12 -27 5 3 15 -6 22 -20 8 -18 16 -24 27 -19 38 16 63 16 81 -1 16 -15 29
-17 77 -10 114 15 125 14 164 -5 48 -25 50 -25 40 3 -6 15 -4 26 5 35 16 15
19 52 4 52 -6 0 -9 6 -8 13 2 8 -10 12 -35 13 -22 0 -43 7 -48 15 -5 8 -9 10
-9 5 0 -4 -8 2 -19 15 -24 29 -17 47 15 41 17 -3 24 0 24 11 0 18 21 27 47 21
11 -3 25 2 33 10 11 14 9 19 -10 36 -13 11 -31 20 -40 20 -15 0 -16 5 -7 38 8
31 15 38 36 40 48 4 131 34 131 48 0 8 5 14 10 14 6 0 10 7 10 15 0 8 -5 15
-11 15 -5 0 -8 4 -5 9 3 5 -1 14 -9 21 -8 7 -15 18 -15 26 0 7 -10 14 -22 16
-18 2 -23 10 -24 33 -1 17 -2 35 -4 40 -1 6 -1 22 0 38 1 17 -4 27 -12 27 -10
0 -9 3 2 10 8 5 11 12 7 16 -4 4 -22 -10 -42 -30 -19 -20 -37 -37 -39 -37 -39
-4 -65 -29 -31 -29 9 0 31 -16 51 -37 27 -27 32 -38 22 -44 -7 -5 -18 -9 -23
-9 -13 0 -37 -38 -31 -49 7 -10 -35 -29 -51 -24 -7 3 -13 11 -13 18 0 18 -14
26 -53 32 -18 3 -34 9 -35 14 -2 5 -7 7 -12 4 -4 -3 -18 3 -31 13 -21 18 -22
20 -6 43 29 40 22 51 -27 44 -30 -5 -52 -2 -73 9 -28 14 -33 14 -68 -4 -26
-13 -43 -16 -54 -10 -14 8 -14 9 2 16 10 4 23 17 28 30 5 14 17 24 28 24 19 0
31 18 31 45 0 10 -13 14 -42 14 -24 0 -52 2 -63 3 -16 2 -19 -2 -17 -20 2 -13
-7 -35 -21 -51 -41 -49 -51 -85 -34 -119 13 -27 13 -29 -4 -25 -12 4 -21 -1
-26 -13 -6 -17 -8 -16 -13 6 -3 14 -17 30 -30 37 -20 10 -26 9 -37 -5 -11 -14
-13 -14 -11 -2 2 9 -5 15 -17 16 -11 0 -30 5 -41 12 -12 6 -23 10 -25 8 -2 -2
-17 -6 -33 -10 -27 -7 -28 -6 -22 19 11 42 66 135 81 135 7 0 15 -7 19 -15 6
-17 42 -20 51 -5 10 17 -5 49 -26 55 -37 12 -20 60 68 199 60 93 149 214 186
250 16 16 47 54 69 83 58 80 283 307 384 391 212 173 638 416 652 372 2 -5 19
2 37 16 18 14 66 42 107 63 40 20 122 68 182 105 120 75 223 118 336 142 90
18 307 22 400 5 106 -18 210 -44 210 -53 0 -4 6 -8 13 -8 6 0 26 -11 42 -25
21 -18 24 -23 10 -19 -15 5 -17 4 -9 -5 6 -7 18 -14 25 -15 8 -1 46 -17 84
-35 67 -32 141 -61 153 -61 13 0 -66 73 -113 104 -27 19 -66 48 -85 65 -19 17
-41 37 -49 43 -25 20 -201 77 -201 64 0 -6 -7 -3 -14 6 -7 10 -15 15 -18 12
-3 -3 -41 7 -84 23 -72 25 -91 27 -224 28 -123 0 -152 -3 -188 -19 -39 -18
-50 -18 -133 -8 -148 20 -326 25 -429 13 -299 -36 -538 -106 -783 -227 -53
-26 -67 -29 -67 -14 0 5 11 12 25 16 14 3 25 12 25 20 0 8 8 14 18 14 11 0 31
11 47 24 34 29 247 115 374 151 51 14 138 33 194 41 128 19 424 26 540 12 77
-8 103 -7 192 11 126 25 279 27 394 6 164 -32 397 -133 571 -248 157 -104 209
-147 406 -332 191 -180 514 -624 573 -790 14 -37 1 -21 -44 55 -16 29 -37 59
-45 69 -8 9 -12 12 -8 6 46 -71 225 -471 216 -480 -2 -2 -21 32 -42 76 -21 44
-40 79 -42 76 -7 -7 54 -229 112 -407 29 -91 60 -192 68 -225 9 -33 22 -87 31
-120 l15 -60 -6 85 c-3 47 -14 139 -25 204 -11 65 -18 121 -16 123 8 7 47
-144 62 -237 29 -183 32 -394 5 -350 -5 8 -14 46 -20 85 -7 38 -23 111 -37
160 -13 50 -29 106 -33 125 -25 96 -155 422 -172 428 -4 2 -8 10 -8 18 0 22
-113 228 -150 271 -5 7 -10 17 -10 23 0 6 -4 9 -9 6 -8 -5 3 -32 75 -181 13
-28 24 -56 24 -62 0 -7 11 -38 25 -69 35 -79 89 -243 126 -382 27 -101 43
-191 74 -402 4 -25 11 -50 17 -57 5 -7 7 -25 4 -41 -4 -15 -3 -39 2 -53 l9
-24 6 30 c4 17 8 56 9 87 2 33 7 53 12 48 13 -13 9 -110 -7 -171 -9 -30 -18
-74 -21 -99 l-5 -45 15 34 c9 19 18 57 21 85 8 67 22 31 17 -42 -3 -33 -1 -51
5 -47 12 7 10 -369 -2 -381 -11 -11 -37 28 -30 46 3 8 7 32 8 53 2 21 6 57 10
80 6 39 6 40 -8 22 -15 -20 -37 -88 -37 -113 0 -8 5 -10 12 -6 8 5 9 2 4 -11
-7 -19 -10 -36 -25 -146 -9 -65 -44 -138 -74 -156 -45 -26 -128 -113 -133
-138 -9 -48 -23 -65 -22 -26 1 21 -5 37 -15 43 -15 8 -14 12 3 41 32 53 40 77
42 126 1 25 9 63 18 83 12 25 14 40 7 47 -7 7 -7 22 1 48 6 21 8 50 5 64 -3
15 0 36 6 48 8 14 9 27 2 40 -7 12 -7 29 0 52 6 19 10 111 10 209 -1 252 -14
360 -56 464 -14 36 -25 74 -23 83 1 10 -5 29 -14 42 -10 13 -14 29 -11 34 9
14 5 88 -6 101 -4 6 -27 74 -51 151 -37 123 -74 216 -127 321 -9 17 -31 49
-50 70 -18 22 -36 49 -39 62 -4 12 -10 22 -15 22 -5 0 -9 9 -9 19 0 11 -4 23
-10 26 -5 3 -10 -1 -10 -9 0 -9 -9 -21 -20 -28 -11 -7 -20 -18 -20 -24 0 -6
-9 -19 -21 -30 -17 -15 -20 -26 -15 -59 15 -100 18 -165 8 -165 -6 0 -14 5
-18 11 -4 7 -29 10 -65 7 -57 -4 -58 -4 -42 14 13 14 14 23 7 35 -14 23 -34
28 -34 9 0 -9 -7 -16 -16 -16 -24 0 -137 -55 -156 -76 -15 -17 -18 -51 -22
-239 -5 -272 -9 -296 -86 -535 -46 -144 -48 -160 -21 -160 25 0 50 -48 61
-119 10 -59 2 -81 -31 -81 -10 0 -23 9 -29 21 -7 12 -18 18 -26 15 -8 -3 -13
-2 -9 3 6 11 -53 56 -62 47 -4 -3 -15 2 -25 11 -23 21 -58 27 -58 11 0 -6 -12
-1 -27 13 -46 40 -74 53 -84 38 -4 -7 -5 -17 -3 -21 3 -4 -7 -8 -21 -8 -19 0
-26 -5 -24 -17 4 -41 0 -45 -35 -39 -31 6 -35 4 -44 -24 -22 -61 -79 -50 -74
13 3 26 -3 45 -21 69 -13 18 -30 56 -37 83 -8 28 -26 63 -42 78 -17 17 -28 39
-28 55 0 22 -9 31 -42 49 -56 28 -120 38 -146 22 -16 -10 -24 -9 -43 4 -30 22
-43 21 -120 -3 -75 -24 -82 -30 -83 -67 -1 -24 -5 -28 -32 -30 -18 0 -41 -6
-53 -13 -12 -6 -41 -12 -64 -14 -23 -2 -49 -6 -57 -9 -15 -7 -26 -5 -68 8 -17
6 -21 12 -16 27 4 13 2 18 -4 14 -6 -3 -18 1 -26 10 -9 9 -23 14 -31 11 -7 -3
-31 -1 -52 5 -21 7 -44 11 -50 9 -7 -1 -21 2 -30 7 -20 11 -67 -3 -59 -17 3
-5 -8 -14 -24 -21 -17 -7 -30 -16 -30 -21 0 -5 -13 -8 -30 -7 -17 1 -30 8 -30
15 0 7 -4 13 -10 13 -5 0 -10 -6 -10 -13 0 -12 -79 -57 -101 -57 -6 0 -2 15 9
33 11 17 18 37 15 43 -2 7 6 11 19 10 23 -1 49 14 43 24 -2 3 17 6 43 5 41 0
47 3 50 23 2 13 -3 24 -12 27 -9 3 -24 8 -33 12 -10 3 -25 5 -34 4 -9 -1 -16
5 -16 14 0 8 6 15 14 15 7 0 13 5 13 11 0 5 -8 9 -17 7 -10 -1 -22 0 -28 3 -5
4 -19 3 -30 -2 -17 -7 -17 -8 8 -8 15 -1 27 -6 27 -12 0 -5 -5 -7 -10 -4 -17
11 -49 -5 -43 -20 3 -8 8 -13 12 -10 10 5 51 -23 51 -36 0 -5 -3 -8 -7 -8 -24
4 -39 -4 -48 -23 -6 -13 -16 -22 -23 -20 -7 1 -12 -2 -12 -8 0 -5 -9 -10 -21
-10 -15 0 -19 -5 -15 -15 3 -9 0 -15 -10 -15 -9 0 -14 -6 -11 -12 2 -7 -3 -18
-12 -25 -14 -10 -12 -11 9 -7 17 4 21 3 12 -4 -7 -5 -15 -30 -16 -55 l-4 -45
45 -4 c41 -3 46 -1 65 30 14 23 24 30 31 23 7 -7 7 -14 -1 -23 -8 -10 0 -13
41 -13 52 0 52 0 50 -31 -2 -24 5 -37 28 -58 22 -20 28 -31 20 -40 -25 -30 17
-76 50 -55 7 4 19 3 25 -2 8 -6 14 -4 18 7 6 15 8 15 31 0 26 -17 39 -21 31
-8 -2 4 -1 14 4 21 10 17 31 5 23 -14 -6 -16 7 -18 47 -5 14 4 19 8 13 9 -7 1
-13 6 -13 11 0 16 40 12 46 -5 7 -17 -14 -48 -26 -40 -4 2 -15 -2 -26 -9 -19
-14 -48 -10 -38 5 3 5 -2 6 -9 3 -25 -9 -13 -39 17 -42 14 -2 24 -8 21 -13 -4
-5 2 -9 12 -9 25 0 60 -26 50 -36 -4 -5 -12 -2 -17 6 -6 8 -10 11 -10 5 0 -19
15 -34 45 -45 17 -6 32 -11 34 -10 2 1 11 -14 19 -32 17 -39 16 -76 -4 -95 -8
-8 -14 -25 -14 -38 0 -14 -7 -25 -18 -27 -15 -4 -18 -12 -15 -35 4 -26 1 -31
-20 -37 -22 -5 -25 -11 -22 -43 1 -21 -1 -43 -6 -49 -16 -20 -18 -114 -3 -142
19 -37 1 -57 -32 -35 -23 15 -24 15 -25 -13 -1 -16 -1 -32 0 -36 0 -5 -4 -8
-9 -8 -6 0 -11 10 -11 23 -1 15 -3 17 -6 5 -2 -9 -12 -19 -21 -21 -13 -4 -12
-5 4 -6 12 0 28 -8 35 -17 7 -9 23 -20 36 -25 47 -18 15 -65 -37 -54 -16 4
-30 3 -30 -2 -1 -32 -50 -39 -50 -7 0 8 -7 17 -16 21 -9 3 -24 26 -35 50 -18
43 -39 50 -39 13 0 -10 -12 -27 -27 -38 -33 -24 -26 -52 15 -52 16 0 51 -11
78 -25 43 -22 53 -23 81 -13 18 7 35 9 38 6 9 -9 -22 -78 -35 -78 -6 0 -8 5
-5 10 8 13 -1 13 -24 0 -13 -6 -28 -4 -54 10 -44 24 -84 26 -154 9 -49 -12
-54 -11 -68 7 -8 10 -14 29 -11 42 3 19 -1 22 -28 22 -43 0 -120 -71 -111
-101 7 -21 -21 -63 -35 -54 -4 3 -13 -2 -20 -10 -7 -8 -19 -15 -26 -15 -18 0
-18 -5 2 -35 9 -14 23 -25 30 -25 8 0 17 -8 20 -17 19 -54 31 -74 51 -79 12
-3 26 -3 31 0 5 3 33 8 63 11 30 4 61 13 70 21 15 13 19 13 33 -1 19 -19 21
-45 4 -45 -7 0 -5 -5 5 -11 11 -6 32 -9 48 -7 17 3 33 0 36 -5 10 -17 -70
-156 -134 -233 -35 -41 -63 -79 -63 -84 0 -20 -37 -29 -58 -15 -20 15 -19 16
24 60 24 25 44 50 44 56 0 6 -17 10 -37 8 -42 -2 -69 6 -95 29 -16 14 -20 13
-38 -3 -22 -19 -18 -35 8 -35 9 0 23 -4 31 -9 12 -8 13 -12 1 -26 -11 -13 -10
-19 9 -38 11 -13 21 -36 21 -50 0 -15 7 -30 15 -33 25 -10 17 -27 -10 -20 -29
7 -50 -22 -40 -55 7 -22 -37 -80 -165 -212 -188 -198 -570 -458 -746 -510 -29
-8 -71 -29 -94 -46 -24 -17 -48 -31 -55 -31 -13 0 -77 -30 -85 -40 -14 -17
-81 -62 -86 -57 -3 3 -14 -2 -24 -11 -10 -9 -25 -22 -33 -29 -18 -14 -121 -63
-134 -63 -5 0 -27 -9 -49 -19 -22 -11 -53 -23 -68 -27 -18 -4 -25 -11 -22 -21
3 -8 6 -25 6 -38 0 -29 56 -57 108 -53 37 3 39 6 26 43 -5 14 2 10 24 -12 17
-18 35 -33 39 -34 4 0 61 -1 125 -3 74 -1 122 -6 130 -14 9 -9 7 -13 -8 -19
-24 -10 -233 -9 -301 1 -46 7 -54 6 -60 -11 -11 -30 -36 -43 -73 -37 -51 7
-15 -13 53 -31 28 -7 101 -38 161 -68 90 -46 113 -53 131 -45 18 8 37 4 91
-20 135 -57 125 -56 214 -38 75 16 83 16 109 0 23 -13 37 -15 67 -8 22 5 64 7
94 3 61 -6 94 9 105 49 3 14 13 22 26 22 11 0 19 5 17 11 -2 7 -33 12 -78 13
-81 2 -130 23 -130 56 0 24 33 29 88 14 26 -8 54 -9 71 -4 30 8 51 -3 51 -27
0 -20 24 -16 56 9 21 17 26 18 22 6 -9 -23 59 -31 92 -10 14 9 41 17 60 18 47
3 47 3 30 14 -13 8 -12 10 5 11 42 3 63 7 155 28 52 12 110 29 128 37 18 8 41
14 52 14 10 0 22 5 25 10 4 6 15 8 26 5 14 -5 22 1 31 22 13 29 38 60 38 47 0
-4 6 0 13 9 9 13 18 15 42 8 41 -11 106 -3 127 16 10 9 18 13 18 10 0 -4 15 1
33 11 24 13 57 19 131 20 62 1 102 6 107 13 4 6 12 8 19 4 8 -5 11 -4 7 2 -4
6 -1 13 7 16 16 7 9 -34 -8 -45 -6 -4 1 -8 17 -8 22 0 27 4 27 26 0 19 7 28
30 37 35 13 38 23 10 32 -11 3 -20 10 -20 15 0 5 -27 14 -60 21 -38 7 -60 17
-60 25 0 8 6 14 13 14 8 0 25 22 38 50 13 27 30 49 37 50 6 0 12 7 12 15 0 9
-6 12 -17 8 -10 -4 -4 8 15 25 17 18 32 36 32 41 0 18 42 45 83 52 23 4 67 16
97 27 30 11 56 16 58 11 2 -4 14 -3 27 3 15 7 21 16 18 26 -5 12 -1 14 15 10
15 -4 22 -2 22 8 0 8 10 14 23 14 21 1 22 1 3 15 -23 18 -13 20 16 4 18 -10
24 -8 38 8 9 11 32 23 53 27 20 4 37 11 37 16 0 6 7 10 15 10 8 0 15 5 15 11
0 5 4 8 9 5 4 -3 16 1 27 8 10 8 25 11 33 8 10 -4 13 -1 8 11 -7 19 4 22 20 6
8 -8 13 -8 17 0 4 6 3 11 -2 11 -6 0 -13 7 -16 16 -6 17 22 46 36 38 4 -3 16
0 27 5 14 8 20 7 25 -4 4 -12 10 -13 23 -5 10 5 31 15 47 20 17 6 26 15 23 24
-3 7 -1 19 5 27 8 12 9 12 6 -1 -6 -19 22 -50 38 -43 8 3 12 9 9 13 -5 9 25
23 33 15 3 -2 0 -11 -7 -19 -9 -11 -7 -15 8 -19 14 -3 18 -1 14 9 -7 19 7 18
36 -2 l23 -17 -16 25 c-15 23 -15 26 -1 31 8 4 14 3 14 -1 -3 -19 2 -23 15
-12 8 6 12 19 9 28 -4 14 -3 15 5 2 6 -8 8 -18 6 -22 -3 -4 0 -8 5 -8 6 0 11
7 11 15 0 8 5 15 11 15 7 0 9 10 5 27 -5 21 -4 24 4 13 9 -13 11 -13 20 0 7
10 12 11 18 4 13 -19 42 -25 42 -8 0 11 6 15 20 11 24 -6 91 41 202 142 37 34
51 42 57 32 6 -8 11 -9 15 -3 3 6 0 12 -6 15 -23 8 53 76 118 107 75 35 110
81 187 242 19 42 26 48 55 48 22 0 32 5 32 15 0 8 4 15 8 15 5 0 7 13 4 28 -2
18 2 33 12 41 25 21 28 8 10 -40 -9 -24 -17 -53 -18 -65 -1 -11 -6 -26 -10
-33 -6 -10 -4 -10 13 1 12 7 21 17 22 23 0 5 4 1 8 -10 5 -12 3 -30 -4 -45 -7
-14 -13 -45 -14 -69 0 -28 -11 -61 -28 -90 -16 -25 -35 -59 -43 -76 -15 -31
-17 -33 -50 -74 -11 -13 -20 -27 -20 -30 0 -3 -13 -20 -28 -38 -15 -17 -37
-44 -49 -60 -12 -15 -76 -83 -142 -150 -67 -67 -121 -127 -121 -132 0 -5 -27
-38 -60 -73 -64 -67 -65 -70 -50 -98 8 -14 3 -25 -20 -50 -17 -18 -30 -34 -30
-37 0 -5 11 2 53 37 9 8 22 15 27 15 13 0 89 59 90 69 0 5 16 24 35 42 18 19
39 42 44 51 6 11 11 13 11 5 0 -7 5 -10 10 -7 6 4 8 10 5 15 -6 10 45 70 60
70 6 0 21 9 33 20 12 12 22 16 22 10 0 -10 -47 -90 -59 -100 -16 -13 -42 -62
-36 -68 8 -8 90 78 145 152 20 28 49 64 64 79 15 16 34 40 43 53 8 13 25 24
37 24 17 0 18 2 6 10 -15 10 -13 11 22 14 10 0 18 6 19 11 0 6 8 18 17 28 8
10 16 26 17 36 1 11 9 26 18 36 19 19 20 24 8 44 -7 10 -12 8 -25 -10 -17 -25
-22 -11 -7 19 43 86 56 108 68 115 7 4 13 15 13 22 0 8 5 15 11 15 7 0 9 -10
7 -25 -3 -13 -1 -22 3 -19 5 3 9 13 9 23 0 9 6 23 13 30 10 11 9 13 -6 8 -15
-6 -16 -4 -6 15 8 15 13 17 19 8 5 -9 13 -2 24 21 26 53 43 72 68 73 17 1 24
8 26 28 3 22 0 27 -12 22 -21 -8 -20 -2 8 48 13 24 30 43 37 43 7 0 19 20 26
45 7 25 17 54 23 65 5 11 19 56 31 100 12 44 34 123 49 175 16 52 31 111 35
130 4 19 14 46 23 60 9 14 33 72 54 130 l38 105 -6 -70 c-14 -180 -103 -521
-217 -835 -33 -91 -60 -171 -60 -177 0 -7 -4 -13 -9 -13 -4 0 -8 -7 -8 -15 0
-8 -4 -15 -9 -15 -5 0 -14 -12 -20 -27 -7 -16 -23 -48 -37 -73 -14 -25 -42
-74 -61 -110 -20 -36 -42 -72 -49 -81 -8 -8 -14 -19 -14 -24 0 -4 -18 -34 -40
-66 -22 -32 -40 -61 -40 -64 0 -3 -22 -34 -48 -68 -27 -34 -72 -97 -101 -139
-29 -43 -57 -80 -62 -84 -5 -3 -9 -10 -9 -16 0 -17 26 9 99 101 224 282 417
623 531 941 91 255 150 485 195 770 34 208 31 668 -5 895 -5 33 -17 107 -26
165 -81 506 -361 1119 -710 1555 -107 133 -346 380 -466 480 -216 182 -485
363 -699 470 -96 49 -108 53 -89 30 7 -8 19 -15 28 -15 8 0 13 -3 10 -6 -9 -8
-88 16 -88 27 0 6 -4 8 -9 5 -5 -3 -49 13 -97 36 -49 22 -105 45 -124 49 -19
4 -62 15 -95 23 -38 10 -130 18 -255 22 -133 5 -204 11 -222 20 -15 8 -36 14
-48 14 -26 0 -26 16 0 30 11 6 20 17 20 24 0 8 16 16 41 19 23 3 48 12 56 20
12 12 3 16 -69 30 -88 18 -333 52 -433 61 -85 8 -445 14 -540 9z m213 -10
c-10 -2 -28 -2 -40 0 -13 2 -5 4 17 4 22 1 32 -1 23 -4z m-218 -7 c0 -2 -9 -6
-20 -9 -11 -3 -18 -1 -14 4 5 9 34 13 34 5z m271 -6 c26 -15 24 -30 -5 -30
-28 0 -54 25 -34 33 7 3 14 6 16 6 2 1 12 -4 23 -9z m-460 -71 c-16 -6 -28 -6
-35 1 -7 7 1 10 25 9 32 0 33 -1 10 -10z m649 -174 c47 -9 96 -18 108 -20 31
-5 35 -10 29 -37 -5 -17 -13 -23 -34 -23 -15 -1 -38 -4 -51 -9 -19 -6 -23 -3
-28 22 -5 24 -11 29 -35 29 -24 0 -29 -5 -29 -24 0 -12 -5 -23 -11 -23 -5 0
-7 -4 -4 -10 12 -19 -28 -10 -45 10 -20 23 -26 24 -137 22 -58 -2 -86 -6 -97
-17 -18 -18 -102 -29 -111 -15 -3 6 -2 10 3 10 6 0 12 6 15 14 4 10 0 12 -14
9 -12 -3 -19 0 -19 8 1 14 29 69 30 57 0 -4 19 0 43 7 54 18 267 13 387 -10z
m-496 3 c-3 -5 -14 -8 -25 -8 -10 0 -19 -7 -19 -15 0 -16 -11 -20 -110 -35
-105 -17 -135 -17 -125 1 4 6 14 8 22 4 14 -5 14 -3 2 12 -12 15 -12 16 3 11
9 -4 19 -1 21 7 5 10 -2 11 -31 3 -20 -6 -46 -15 -57 -21 -24 -13 -38 -17 -90
-22 -62 -7 -105 -15 -134 -27 -14 -6 -28 -12 -31 -12 -3 -1 -14 -7 -25 -13
-20 -12 -20 -12 0 -13 16 0 14 -4 -13 -22 -17 -13 -34 -30 -37 -39 -7 -20 -57
-32 -68 -16 -6 8 -7 6 -3 -5 4 -13 -2 -20 -19 -24 -13 -3 -27 -15 -31 -26 -3
-11 -14 -28 -23 -37 -20 -20 -91 -35 -91 -20 0 6 -4 8 -9 5 -5 -4 -7 3 -4 14
3 11 0 20 -6 20 -6 0 -11 -6 -11 -14 0 -17 -58 -30 -215 -46 -60 -6 -138 -18
-173 -27 -35 -8 -65 -13 -68 -10 -9 9 336 174 402 192 32 10 68 23 79 29 11 7
43 18 70 25 28 8 70 20 93 27 24 8 62 17 84 20 23 2 44 7 48 9 25 16 279 62
390 71 41 3 76 7 78 8 6 7 130 0 126 -6z m43 -4 c-3 -3 -12 -4 -19 -1 -8 3 -5
6 6 6 11 1 17 -2 13 -5z m-22 -44 c-3 -5 -10 -10 -16 -10 -5 0 -9 5 -9 10 0 6
7 10 16 10 8 0 12 -4 9 -10z m340 -91 c4 -6 -2 -13 -13 -16 -13 -3 -18 -10
-15 -19 3 -8 0 -20 -6 -28 -6 -7 -8 -16 -4 -19 3 -4 1 -7 -5 -7 -6 0 -14 5
-17 10 -4 6 -10 8 -15 5 -5 -3 -11 -1 -15 5 -3 5 -14 10 -23 10 -28 0 -27 49
1 60 31 12 105 12 112 -1z m-2188 -264 c-15 -14 -33 -25 -40 -25 -6 0 4 11 23
25 43 32 53 32 17 0z m2713 -132 c0 -9 -132 -207 -145 -215 -13 -10 -35 -10
-35 0 0 4 24 50 54 102 39 68 62 98 83 107 33 14 43 16 43 6z m-444 -239 c3
-22 1 -44 -3 -49 -4 -6 -52 -41 -106 -78 -53 -38 -139 -102 -190 -143 -99 -81
-118 -86 -176 -47 l-25 16 44 40 c157 141 424 327 443 308 5 -5 11 -26 13 -47z
m3044 -905 c0 -6 -4 -7 -10 -4 -5 3 -10 11 -10 16 0 6 5 7 10 4 6 -3 10 -11
10 -16z m-470 -393 c0 -3 -4 -8 -10 -11 -5 -3 -10 -1 -10 4 0 6 5 11 10 11 6
0 10 -2 10 -4z m1 -33 c7 -44 6 -63 -1 -68 -5 -3 -11 -1 -15 5 -4 6 -11 8 -16
5 -10 -7 -12 25 -3 49 6 16 33 22 35 9z m-5 -160 c-4 -27 -6 -64 -6 -83 0 -65
-43 -242 -88 -361 -11 -31 -19 -59 -16 -61 2 -3 -2 -11 -11 -18 -8 -7 -15 -21
-15 -31 0 -18 -19 -38 -21 -22 -4 22 -9 70 -10 86 0 9 -5 17 -10 17 -6 0 -7 5
-4 10 4 6 12 7 18 3 9 -5 9 -3 0 8 -16 19 6 65 29 61 20 -3 42 24 34 43 -3 8
-13 15 -21 15 -9 0 -13 -4 -10 -10 3 -5 1 -10 -4 -10 -22 0 -26 -2 -34 -16 -4
-8 -11 -14 -16 -14 -6 0 -29 46 -44 93 -4 9 -13 17 -22 17 -8 0 -15 5 -15 11
0 5 -4 8 -9 4 -5 -3 -12 -1 -16 5 -24 39 -4 113 30 108 16 -2 19 -9 17 -38 -2
-32 -1 -34 12 -16 18 22 39 12 31 -15 -6 -18 -5 -19 14 -7 20 12 20 12 0 31
-15 14 -17 22 -9 37 6 11 15 20 20 20 6 0 10 7 10 15 0 8 7 15 15 15 15 0 19
-10 16 -42 -3 -25 31 -23 47 3 12 18 11 21 -7 26 -32 8 -25 30 24 79 24 25 47
54 50 65 13 39 27 19 21 -28z m-3766 -30 c0 -26 -37 -93 -52 -93 -25 0 -31 18
-13 36 9 9 23 27 32 40 15 23 33 32 33 17z m3600 -3 c0 -5 -5 -10 -11 -10 -5
0 -7 5 -4 10 3 6 8 10 11 10 2 0 4 -4 4 -10z m409 -47 c11 -38 6 -61 -4 -27
-4 10 -11 27 -16 36 -12 23 -12 41 1 33 5 -3 14 -22 19 -42z m-469 -53 c0 -5
-2 -10 -4 -10 -3 0 -8 5 -11 10 -3 6 -1 10 4 10 6 0 11 -4 11 -10z m500 -18
c0 -10 7 -40 16 -66 11 -32 13 -51 6 -58 -7 -7 -12 0 -17 21 -4 17 -10 31 -14
31 -4 0 -7 17 -6 38 0 20 -4 40 -10 44 -6 4 -2 8 8 8 10 0 17 -7 17 -18z m-70
-81 c0 -5 -7 -11 -15 -15 -16 -6 -21 -46 -7 -46 13 0 12 -59 0 -66 -7 -4 -8
-2 -4 5 4 6 0 14 -8 17 -9 3 -17 16 -17 28 -1 20 -2 20 -6 1 -3 -11 -10 -23
-17 -27 -8 -6 -7 -8 2 -8 6 0 12 -7 12 -15 0 -17 -16 -20 -25 -5 -4 6 -12 7
-18 3 -7 -4 -6 1 2 11 12 15 12 17 0 14 -14 -3 -15 17 -3 52 4 13 6 13 14 0 7
-12 12 -12 22 -2 8 8 8 12 1 12 -6 0 -13 9 -16 19 -4 16 0 18 29 16 19 -2 34
1 34 6 0 5 5 9 10 9 6 0 10 -4 10 -9z m-525 -12 c-4 -5 1 -20 12 -31 18 -21
18 -21 -4 -7 -23 14 -29 30 -16 42 10 11 15 8 8 -4z m562 -31 c-3 -8 -6 -5 -6
6 -1 11 2 17 5 13 3 -3 4 -12 1 -19z m-3742 -14 c0 -5 -10 -10 -22 -12 -13 -2
-23 -8 -23 -13 0 -6 -5 -7 -10 -4 -6 4 -17 1 -25 -5 -16 -14 -35 -5 -35 16 0
9 11 14 30 14 17 0 30 4 30 9 0 5 12 8 28 7 15 -2 27 -7 27 -12z m3813 -64 c0
-9 -3 -7 -8 5 -5 11 -8 29 -8 40 0 16 2 15 8 -5 4 -14 8 -32 8 -40z m316 45
c3 -8 1 -15 -4 -15 -6 0 -10 7 -10 15 0 8 2 15 4 15 2 0 6 -7 10 -15z m-4128
-82 c-11 -11 -17 4 -9 23 7 18 8 18 11 1 2 -10 1 -21 -2 -24z m560 9 c-3 -3 0
-12 7 -20 9 -13 9 -14 0 -8 -7 4 -13 2 -13 -3 0 -6 -7 -11 -16 -11 -9 0 -13 5
-10 13 3 6 9 20 12 29 4 10 11 15 16 12 5 -3 7 -9 4 -12z m3594 -65 c0 -23 -4
-36 -10 -32 -5 3 -10 27 -10 53 0 34 3 43 10 32 5 -8 10 -32 10 -53z m-4586
-72 c6 -17 23 -42 39 -57 15 -15 27 -36 27 -46 0 -11 8 -23 17 -26 10 -4 13
-10 7 -16 -6 -6 -31 -4 -68 7 -63 18 -82 43 -72 96 3 15 1 27 -4 27 -12 0 -32
38 -26 49 3 5 20 6 38 2 23 -5 34 -14 42 -36z m-102 13 c-7 -7 -12 -8 -12 -2
0 14 12 26 19 19 2 -3 -1 -11 -7 -17z m1798 -94 c0 -9 -32 -33 -44 -34 -5 0
-1 9 9 20 18 20 35 26 35 14z m52 -2 c15 -6 13 -9 -13 -21 -34 -15 -42 -12
-33 13 7 17 18 19 46 8z m584 -12 c8 0 14 -5 14 -11 0 -6 7 -18 16 -26 14 -15
13 -19 -13 -44 -31 -31 -61 -31 -81 1 -10 16 -9 18 11 15 21 -4 21 -4 3 10
-16 12 -17 15 -4 15 11 0 14 7 10 27 -4 22 -2 25 12 20 10 -4 24 -7 32 -7z
m-126 -47 c11 -10 20 -23 20 -30 0 -17 -40 -17 -41 0 0 6 -2 20 -4 30 -4 21 0
21 25 0z m44 -52 c3 -5 -1 -12 -10 -15 -20 -8 -29 -1 -19 13 8 13 22 14 29 2z
m926 -41 c0 -5 -5 -10 -11 -10 -5 0 -7 5 -4 10 3 6 8 10 11 10 2 0 4 -4 4 -10z
m-950 -122 c0 -17 -5 -18 -42 -13 -24 4 -46 9 -50 12 -15 8 4 25 23 20 11 -3
19 -2 19 3 0 4 11 5 25 2 16 -3 25 -11 25 -24z m20 -53 c15 -18 3 -57 -17 -53
-26 5 -39 34 -24 52 17 20 25 20 41 1z m-47 -96 c-4 -15 -8 -17 -14 -8 -6 11
4 28 18 29 0 0 -1 -9 -4 -21z m82 -45 c27 -29 30 -40 16 -48 -13 -8 -61 37
-61 57 0 25 17 21 45 -9z m745 22 c0 -3 -4 -8 -10 -11 -5 -3 -10 -1 -10 4 0 6
5 11 10 11 6 0 10 -2 10 -4z m-3510 -81 c0 -16 -27 -32 -37 -21 -7 7 16 36 28
36 5 0 9 -7 9 -15z m5206 -135 c-21 -81 -24 -87 -19 -40 3 30 10 63 14 72 5 9
9 34 9 56 0 43 13 67 18 30 1 -12 -9 -66 -22 -118z m-1668 45 c7 -14 12 -39
12 -55 0 -16 5 -32 10 -35 6 -3 10 -17 10 -31 0 -13 -4 -24 -10 -24 -5 0 -10
6 -10 14 0 8 -6 16 -13 19 -16 6 -43 110 -33 126 11 17 22 13 34 -14z m-513
-215 c3 -5 -1 -10 -9 -10 -9 0 -16 5 -16 10 0 6 4 10 9 10 6 0 13 -4 16 -10z
m-3859 -150 c0 -11 -6 -20 -13 -20 -15 0 -15 2 -7 24 9 22 20 20 20 -4z m-264
-37 c16 -32 23 -107 12 -125 -11 -17 -22 18 -23 70 -1 23 -5 42 -10 42 -5 0
-7 9 -4 20 7 26 9 25 25 -7z m228 -168 c-5 -16 -11 -46 -13 -65 -2 -19 -8 -35
-14 -35 -6 0 -13 -2 -15 -5 -2 -3 -1 -4 1 -3 7 4 41 -18 41 -27 0 -6 -7 -10
-16 -10 -12 0 -15 -6 -10 -25 5 -18 2 -27 -9 -31 -9 -4 -18 -5 -20 -2 -12 12
-11 78 1 113 7 22 14 54 14 72 0 18 4 42 9 55 5 13 13 37 17 53 7 29 8 29 15
-15 4 -25 3 -58 -1 -75z m3538 30 c-3 -3 -9 2 -12 12 -6 14 -5 15 5 6 7 -7 10
-15 7 -18z m-210 -141 c8 -6 -9 -40 -33 -69 -24 -29 -25 -29 -40 -11 -13 17
-15 18 -21 2 -5 -14 -15 -16 -63 -10 -59 7 -73 17 -63 43 16 42 68 60 152 54
36 -3 67 -7 68 -9z m-3489 -112 c1 -41 -22 -39 -27 1 -2 15 -8 27 -13 27 -16
0 -10 32 9 46 15 11 18 9 23 -14 4 -15 7 -42 8 -60z m148 -44 c-25 -16 -37 -9
-27 16 5 13 8 26 7 28 -1 2 6 -6 15 -17 12 -14 13 -22 5 -27z m-117 -28 c0 -5
-5 -10 -11 -10 -5 0 -7 5 -4 10 3 6 8 10 11 10 2 0 4 -4 4 -10z m125 -9 c3 -5
1 -12 -5 -16 -5 -3 -10 1 -10 9 0 18 6 21 15 7z m5 -46 c-14 -17 -50 -21 -50
-5 0 5 6 7 14 4 8 -3 20 1 27 9 18 19 26 12 9 -8z m3985 -3 c-8 -8 -25 10 -19
20 4 6 9 5 15 -3 4 -7 6 -15 4 -17z m105 8 c7 -13 5 -21 -6 -31 -8 -7 -13 -18
-10 -25 3 -8 -3 -18 -14 -24 -26 -14 -27 -14 -28 25 -1 26 2 33 13 28 8 -3 15
1 15 8 0 7 -3 9 -7 6 -7 -7 -33 11 -33 23 0 16 60 8 70 -10z m-4190 -70 c-6
-11 -12 -20 -14 -20 -3 0 0 49 4 70 0 3 5 -3 11 -12 7 -12 6 -24 -1 -38z
m4117 29 c2 -16 -1 -19 -9 -11 -5 5 -7 15 -4 21 10 15 12 14 13 -10z m1453 11
c0 -5 -2 -10 -4 -10 -3 0 -8 5 -11 10 -3 6 -1 10 4 10 6 0 11 -4 11 -10z
m-1477 -24 c3 -8 -2 -16 -14 -19 -12 -3 -19 0 -19 10 0 8 5 11 10 8 6 -3 10
-1 10 4 0 15 7 14 13 -3z m1717 -121 c-7 -9 -15 -13 -18 -10 -3 2 1 11 8 20 7
9 15 13 18 10 3 -2 -1 -11 -8 -20z m-138 -91 c7 -6 -48 -145 -60 -154 -5 -3
-34 -38 -66 -77 -32 -40 -62 -73 -68 -73 -5 0 0 10 11 22 11 11 34 49 52 82
52 103 67 127 91 155 14 15 23 32 20 39 -4 12 10 17 20 6z m-231 -448 c-49
-49 -63 -43 -21 9 16 21 30 42 30 47 0 5 6 15 13 22 10 12 13 9 15 -12 3 -19
-7 -35 -37 -66z m-661 69 c0 -8 -7 -15 -15 -15 -8 0 -15 5 -15 11 0 5 5 7 10
4 6 -3 10 -1 10 4 0 6 2 11 5 11 3 0 5 -7 5 -15z m-110 -49 c0 -2 -9 -6 -20
-9 -11 -3 -18 -1 -14 4 5 9 34 13 34 5z m-27 -46 c-3 -12 -8 -19 -11 -16 -5 6
5 36 12 36 2 0 2 -9 -1 -20z m-1708 -62 c20 -19 -234 -236 -383 -328 -56 -34
-61 -35 -63 -4 -6 58 1 69 64 111 62 41 214 161 272 215 25 23 36 27 65 22 19
-4 40 -11 45 -16z m-721 -380 c-43 -84 -106 -168 -130 -174 -14 -4 -27 -5 -29
-3 -2 2 23 40 55 84 33 44 66 90 75 103 9 12 23 22 31 22 12 0 12 -5 -2 -32z
m465 -211 c-2 -2 -23 -13 -46 -25 -37 -19 -41 -19 -36 -4 4 9 11 20 17 24 10
7 74 12 65 5z m-144 -67 c8 -13 -5 -13 -25 0 -13 8 -13 10 2 10 9 0 20 -4 23
-10z m-138 -62 c-53 -35 -330 -99 -348 -81 -6 6 3 13 28 21 104 31 182 51 221
57 24 4 55 13 70 21 20 10 28 10 34 1 4 -6 2 -15 -5 -19z m678 -67 c3 -5 1
-12 -5 -16 -5 -3 -10 1 -10 9 0 18 6 21 15 7z m-525 -75 c0 -3 -4 -8 -10 -11
-5 -3 -10 -1 -10 4 0 6 5 11 10 11 6 0 10 -2 10 -4z"/>
<path d="M2745 6932 c-27 -9 -52 -19 -55 -23 -3 -4 -24 -12 -47 -18 -23 -6
-45 -17 -49 -23 -7 -11 -4 -10 44 9 15 7 16 -13 0 -23 -24 -15 27 -22 55 -7
29 15 38 29 11 19 -14 -5 -15 -4 -4 9 7 8 18 14 24 13 10 -2 70 27 105 50 22
15 -28 11 -84 -6z"/>
<path d="M6511 4785 c0 -5 6 -19 14 -29 8 -11 15 -15 15 -10 0 6 -7 19 -15 30
-8 10 -14 15 -14 9z"/>
<path d="M6490 4750 c8 -5 20 -10 25 -10 6 0 3 5 -5 10 -8 5 -19 10 -25 10 -5
0 -3 -5 5 -10z"/>
<path d="M6378 4583 c7 -3 16 -2 19 1 4 3 -2 6 -13 5 -11 0 -14 -3 -6 -6z"/>
<path d="M6395 4520 c-3 -5 1 -10 9 -10 9 0 16 5 16 10 0 6 -4 10 -9 10 -6 0
-13 -4 -16 -10z"/>
<path d="M3363 7333 c9 -2 23 -2 30 0 6 3 -1 5 -18 5 -16 0 -22 -2 -12 -5z"/>
<path d="M3283 7323 c9 -2 23 -2 30 0 6 3 -1 5 -18 5 -16 0 -22 -2 -12 -5z"/>
<path d="M3175 7310 c-42 -11 -1 -11 50 -1 34 7 35 9 10 9 -16 0 -43 -4 -60
-8z"/>
<path d="M3108 7293 c6 -2 18 -2 25 0 6 3 1 5 -13 5 -14 0 -19 -2 -12 -5z"/>
<path d="M3030 7280 c-20 -6 -21 -8 -5 -8 11 0 31 4 45 8 20 6 21 8 5 8 -11 0
-31 -4 -45 -8z"/>
<path d="M4678 7263 c7 -3 16 -2 19 1 4 3 -2 6 -13 5 -11 0 -14 -3 -6 -6z"/>
<path d="M4768 7243 c7 -3 16 -2 19 1 4 3 -2 6 -13 5 -11 0 -14 -3 -6 -6z"/>
<path d="M4808 7233 c7 -3 16 -2 19 1 4 3 -2 6 -13 5 -11 0 -14 -3 -6 -6z"/>
<path d="M5100 7140 c8 -5 20 -10 25 -10 6 0 3 5 -5 10 -8 5 -19 10 -25 10 -5
0 -3 -5 5 -10z"/>
<path d="M5200 7100 c8 -5 20 -10 25 -10 6 0 3 5 -5 10 -8 5 -19 10 -25 10 -5
0 -3 -5 5 -10z"/>
<path d="M5319 7049 c46 -22 86 -38 88 -36 4 5 -153 77 -164 76 -4 0 30 -18
76 -40z"/>
<path d="M5642 6513 c26 -26 49 -45 52 -42 7 7 -72 89 -86 89 -7 0 8 -21 34
-47z"/>
<path d="M5790 6502 c0 -4 8 -15 18 -24 9 -9 40 -42 67 -73 113 -129 196 -199
144 -122 -17 26 -218 227 -226 227 -2 0 -3 -3 -3 -8z"/>
<path d="M6090 6481 c0 -14 23 -34 75 -65 41 -25 75 -44 75 -41 0 11 -70 76
-107 99 -40 25 -43 25 -43 7z"/>
<path d="M5767 6395 c31 -44 94 -105 109 -105 7 0 16 5 19 10 5 8 12 7 22 -2
21 -17 54 -21 47 -5 -4 12 -65 57 -77 57 -4 0 -7 -7 -7 -15 0 -21 -21 -9 -85
47 -42 36 -46 38 -28 13z"/>
<path d="M6001 6353 c7 -10 29 -33 51 -52 51 -45 50 -17 -1 32 -42 39 -70 51
-50 20z"/>
<path d="M6313 6313 c0 -9 27 -41 61 -72 33 -31 89 -84 125 -118 67 -65 86
-74 56 -26 -20 32 -170 181 -213 212 -24 17 -29 18 -29 4z"/>
<path d="M6271 6139 c-1 -21 26 -56 36 -46 4 5 1 14 -8 20 -9 7 -18 19 -22 27
-5 13 -6 13 -6 -1z"/>
<path d="M6385 6123 c68 -119 133 -206 150 -199 8 3 19 -9 28 -32 14 -35 94
-132 109 -132 12 0 -34 85 -75 138 -24 32 -46 51 -54 48 -7 -3 -13 1 -13 8 0
29 -132 196 -154 196 -4 0 1 -12 9 -27z"/>
<path d="M6630 6006 c0 -2 8 -10 18 -17 15 -13 16 -12 3 4 -13 16 -21 21 -21
13z"/>
<path d="M6044 5829 c-1 -23 1 -36 5 -30 10 16 36 -15 45 -53 4 -18 11 -25 16
-20 13 13 -3 68 -32 110 -13 19 -25 34 -28 34 -3 0 -6 -19 -6 -41z"/>
<path d="M6372 5833 c7 -16 21 -41 32 -58 22 -33 127 -135 138 -135 11 0 10
18 -2 25 -5 3 -7 11 -4 18 2 7 -18 36 -46 66 -45 46 -50 54 -38 69 12 15 11
16 -4 4 -15 -12 -21 -10 -45 12 -36 33 -46 33 -31 -1z"/>
<path d="M6080 5705 c0 -12 21 -25 41 -25 21 0 7 28 -16 32 -16 3 -25 1 -25
-7z"/>
<path d="M6780 5675 c0 -3 4 -13 10 -23 5 -9 19 -39 30 -65 12 -27 24 -47 27
-44 10 10 -9 67 -25 77 -14 8 -14 10 -2 10 12 0 11 3 -2 11 -10 5 -18 17 -18
24 0 8 -4 15 -10 15 -5 0 -10 -2 -10 -5z"/>
<path d="M6878 5523 c-4 -33 4 -53 60 -147 36 -61 67 -105 70 -98 5 16 -46
149 -65 167 -8 8 -12 15 -9 15 4 0 -5 23 -19 50 -14 28 -27 50 -29 50 -2 0 -6
-17 -8 -37z"/>
<path d="M3845 5410 c-3 -5 -1 -10 4 -10 6 0 11 5 11 10 0 6 -2 10 -4 10 -3 0
-8 -4 -11 -10z"/>
<path d="M6196 5405 c-3 -8 -1 -15 3 -15 5 0 11 7 15 15 3 8 1 15 -3 15 -5 0
-11 -7 -15 -15z"/>
<path d="M3472 5303 c2 -10 10 -18 18 -18 8 0 16 8 18 18 2 12 -3 17 -18 17
-15 0 -20 -5 -18 -17z"/>
<path d="M6204 5285 c4 -16 7 -42 6 -57 0 -14 7 -33 15 -41 8 -9 15 -23 15
-31 0 -20 24 -21 40 -2 6 8 14 28 16 45 4 23 1 31 -15 36 -11 3 -20 9 -20 13
4 23 -3 42 -12 37 -5 -4 -20 1 -31 12 -21 18 -21 18 -14 -12z"/>
<path d="M6281 5290 c0 -8 4 -24 9 -35 5 -13 9 -14 9 -5 0 8 -4 24 -9 35 -5
13 -9 14 -9 5z"/>
<path d="M4584 5009 c-7 -12 26 -40 41 -35 6 2 18 -1 28 -6 31 -16 18 -1 -23
25 -24 17 -41 23 -46 16z"/>
<path d="M4422 4788 c-8 -8 -9 -15 -1 -25 6 -7 8 -21 4 -30 -5 -10 -9 -25 -9
-33 -1 -8 -6 -15 -13 -15 -7 0 -18 -6 -24 -12 -10 -10 -9 -13 7 -14 10 -1 23
-1 28 0 5 1 13 -4 17 -11 7 -10 9 -9 9 4 0 9 5 20 12 24 7 4 8 3 4 -4 -4 -7
-1 -12 8 -12 9 0 16 -6 16 -13 0 -16 -44 -42 -57 -34 -5 3 -37 -1 -72 -10 -37
-9 -58 -19 -50 -23 6 -5 10 -21 7 -38 -4 -28 -2 -31 30 -34 20 -3 36 1 39 7 5
15 98 19 123 5 16 -9 18 -8 14 5 -4 8 -1 15 6 15 8 0 10 9 6 26 -5 17 -3 23 4
19 5 -3 10 1 10 9 0 8 14 23 30 33 17 9 30 26 30 36 0 14 5 17 20 12 12 -4 27
-1 35 5 16 13 21 1 7 -16 -4 -5 -5 -8 -3 -7 2 2 9 -1 15 -6 6 -5 25 -12 43
-16 31 -6 32 -5 30 24 -1 17 -8 31 -14 31 -21 0 -15 14 10 25 13 6 23 20 25
35 3 25 1 25 -45 22 -116 -8 -199 -7 -218 4 -32 19 -71 24 -83 12z m218 -58
c0 -11 -4 -20 -9 -20 -11 0 -22 26 -14 34 12 12 23 5 23 -14z"/>
<path d="M3948 4713 c-10 -2 -18 -8 -18 -13 0 -10 38 -1 46 11 5 9 1 10 -28 2z"/>
<path d="M4850 4705 c0 -18 11 -24 32 -16 15 5 13 8 -7 18 -20 9 -25 8 -25 -2z"/>
<path d="M3310 4560 c-17 -11 -13 -15 23 -24 31 -7 37 8 9 23 -11 6 -24 6 -32
1z"/>
<path d="M307 4553 c-4 -3 -7 -11 -7 -17 0 -6 5 -5 12 2 6 6 9 14 7 17 -3 3
-9 2 -12 -2z"/>
<path d="M4400 4452 c0 -9 11 -12 33 -10 38 4 34 21 -6 22 -16 1 -27 -4 -27
-12z"/>
<path d="M3120 4450 c0 -5 5 -10 10 -10 6 0 10 5 10 10 0 6 -4 10 -10 10 -5 0
-10 -4 -10 -10z"/>
<path d="M3341 4384 c0 -11 3 -14 6 -6 3 7 2 16 -1 19 -3 4 -6 -2 -5 -13z"/>
<path d="M4898 4381 c-18 -6 -37 -33 -38 -53 0 -13 7 -17 30 -15 16 1 30 5 30
8 0 10 71 39 98 39 26 1 26 1 7 15 -18 14 -91 17 -127 6z"/>
<path d="M3811 4261 c-11 -7 -11 -10 0 -14 9 -4 10 -6 2 -6 -7 -1 -10 -8 -6
-18 4 -11 3 -14 -5 -9 -7 4 -12 15 -12 24 0 13 -3 12 -16 -6 -12 -17 -19 -20
-34 -12 -24 13 -23 13 -49 -9 -23 -20 -20 -61 4 -41 9 8 14 6 19 -5 3 -8 16
-15 28 -15 13 0 30 -5 38 -10 13 -9 13 -11 0 -19 -9 -7 -19 -6 -29 2 -12 10
-14 9 -8 -5 4 -12 2 -15 -9 -11 -10 4 -12 0 -8 -11 3 -9 10 -16 15 -16 5 0 9
-7 9 -15 0 -18 37 -20 77 -3 15 6 32 10 37 9 5 -1 1 9 -8 23 -10 15 -14 37
-12 53 3 15 0 34 -7 42 -10 12 -9 13 2 6 10 -5 12 -4 7 4 -4 6 -10 24 -12 38
-6 34 -6 34 -23 24z"/>
<path d="M4390 4059 c0 -38 24 -35 28 4 2 19 -1 27 -12 27 -11 0 -16 -10 -16
-31z"/>
<path d="M3746 3991 c-23 -5 -30 -12 -33 -36 -2 -16 -8 -43 -13 -58 -5 -15 -7
-34 -3 -43 7 -20 49 -40 99 -48 36 -6 49 -3 100 28 32 20 67 36 77 36 11 0 17
8 17 25 0 18 -11 32 -40 50 -22 14 -49 25 -61 25 -11 0 -27 7 -35 15 -16 15
-56 18 -108 6z"/>
<path d="M7237 3958 c-8 -24 -18 -61 -22 -83 -6 -39 -5 -39 8 -14 17 30 41
128 35 135 -3 2 -12 -15 -21 -38z"/>
<path d="M4696 3823 c-6 -14 -5 -15 5 -6 7 7 10 15 7 18 -3 3 -9 -2 -12 -12z"/>
<path d="M3035 3584 l-30 -14 38 4 c43 4 55 11 35 19 -8 2 -27 -1 -43 -9z"/>
<path d="M410 3455 c0 -5 5 -17 10 -25 5 -8 10 -10 10 -5 0 6 -5 17 -10 25 -5
8 -10 11 -10 5z"/>
<path d="M3308 3383 c7 -3 16 -2 19 1 4 3 -2 6 -13 5 -11 0 -14 -3 -6 -6z"/>
<path d="M420 3375 c0 -5 5 -17 10 -25 5 -8 10 -10 10 -5 0 6 -5 17 -10 25 -5
8 -10 11 -10 5z"/>
<path d="M2957 3333 c-4 -3 -7 -12 -7 -20 0 -15 46 -18 55 -3 3 6 -1 10 -9 10
-9 0 -16 5 -16 10 0 11 -13 13 -23 3z"/>
<path d="M4490 3322 c0 -4 -10 -12 -22 -17 -25 -11 -45 -41 -36 -51 4 -3 27
-9 53 -11 37 -5 45 -3 45 11 0 25 -3 31 -17 28 -16 -4 -17 15 -1 20 6 2 8 10
4 16 -8 13 -26 16 -26 4z"/>
<path d="M3167 3133 c-12 -11 -8 -45 5 -41 17 6 30 48 14 48 -7 0 -16 -3 -19
-7z"/>
<path d="M4380 3109 c0 -5 5 -7 10 -4 6 3 10 8 10 11 0 2 -4 4 -10 4 -5 0 -10
-5 -10 -11z"/>
<path d="M2993 3084 c-44 -19 -50 -34 -14 -34 21 0 31 -5 31 -15 0 -19 20 -19
48 1 24 16 26 23 14 40 -12 19 -46 23 -79 8z"/>
<path d="M830 3007 c0 -10 8 -17 18 -17 9 0 13 4 7 8 -5 4 -13 11 -17 16 -5 5
-8 2 -8 -7z"/>
<path d="M3543 2833 c-19 -4 -20 -6 -8 -29 19 -37 8 -64 -26 -64 -15 0 -31 5
-34 10 -7 11 -74 3 -88 -10 -4 -4 3 -15 17 -24 28 -18 33 -45 14 -64 -9 -9 -6
-10 13 -7 13 3 32 15 43 27 16 20 27 23 78 21 77 -3 112 13 51 23 -53 8 -55
20 -5 33 21 6 48 20 61 32 22 21 22 21 3 35 -22 15 -86 25 -119 17z"/>
<path d="M3102 2818 c5 -15 28 -18 29 -3 0 6 -7 12 -17 13 -10 3 -15 -1 -12
-10z"/>
<path d="M3770 2800 c0 -5 5 -10 10 -10 6 0 10 5 10 10 0 6 -4 10 -10 10 -5 0
-10 -4 -10 -10z"/>
<path d="M920 2790 c0 -5 5 -10 11 -10 5 0 7 5 4 10 -3 6 -8 10 -11 10 -2 0
-4 -4 -4 -10z"/>
<path d="M3313 2763 c-31 -6 -39 -33 -9 -33 35 0 56 10 56 26 0 14 -6 15 -47
7z"/>
<path d="M1448 2670 c-9 -10 -13 -21 -10 -25 4 -3 0 -10 -7 -14 -11 -7 -9 -11
8 -20 17 -10 25 -9 37 3 8 8 21 13 29 10 20 -8 19 -24 0 -24 -13 0 -13 -3 -4
-13 7 -7 25 -11 41 -9 25 4 29 9 26 30 -2 15 -13 31 -25 38 -13 6 -31 18 -41
27 -23 21 -32 20 -54 -3z"/>
<path d="M1578 2598 c-2 -14 0 -36 6 -49 10 -24 10 -23 14 8 2 18 -1 40 -6 49
-8 14 -10 13 -14 -8z"/>
<path d="M3158 2609 c-2 -5 -12 -11 -22 -13 -17 -2 -46 -31 -46 -46 0 -17 50
-29 80 -19 29 11 42 29 19 29 -5 0 -7 5 -4 10 3 6 1 10 -4 10 -6 0 -11 -5 -11
-12 0 -9 -3 -9 -11 -1 -13 13 -3 36 12 28 5 -4 9 1 9 9 0 18 -16 22 -22 5z"/>
<path d="M1430 2590 c0 -5 5 -10 11 -10 5 0 7 5 4 10 -3 6 -8 10 -11 10 -2 0
-4 -4 -4 -10z"/>
<path d="M2935 2527 c-15 -53 -14 -57 20 -57 18 0 36 6 38 13 4 10 6 10 6 0 1
-16 45 -17 72 -3 33 18 21 26 -40 24 -43 -1 -58 2 -55 11 3 7 -4 15 -16 18
-12 3 -23 0 -25 -6z"/>
<path d="M1216 2494 c-27 -20 -28 -44 -3 -53 28 -11 37 -5 37 22 0 37 -12 47
-34 31z"/>
<path d="M818 2440 c2 -16 8 -30 13 -30 10 0 12 21 3 44 -10 27 -21 18 -16
-14z"/>
<path d="M4070 2445 c-11 -13 -8 -15 18 -15 34 0 50 15 26 24 -23 9 -30 8 -44
-9z"/>
<path d="M1160 2402 c6 -13 14 -21 18 -18 3 4 -2 14 -12 24 -18 16 -18 16 -6
-6z"/>
<path d="M1590 2388 c-8 -13 -13 -26 -12 -29 0 -4 -10 -18 -23 -33 -43 -47
-72 -91 -79 -120 -6 -25 -5 -28 13 -23 25 6 39 -11 17 -19 -21 -8 -21 -24 0
-24 8 0 15 -8 14 -17 -4 -36 12 -64 31 -58 11 4 19 2 19 -4 0 -6 -4 -11 -10
-11 -5 0 -10 -11 -10 -25 0 -14 3 -24 8 -24 20 3 30 -3 36 -23 5 -22 6 -21 31
12 23 31 30 29 26 -7 -1 -8 10 -10 36 -6 21 3 40 8 42 10 10 8 10 43 1 43 -6
0 -8 11 -4 24 7 29 -24 140 -46 164 -9 9 -17 33 -18 52 -4 59 -28 135 -43 138
-8 1 -21 -8 -29 -20z"/>
<path d="M3590 2390 c-9 -6 -10 -10 -3 -10 6 0 15 5 18 10 8 12 4 12 -15 0z"/>
<path d="M4125 2370 c-4 -6 -3 -16 3 -22 6 -6 12 -6 17 2 4 6 3 16 -3 22 -6 6
-12 6 -17 -2z"/>
<path d="M3425 2269 c-4 -6 -5 -13 -1 -16 8 -8 56 6 56 17 0 13 -47 13 -55 -1z"/>
<path d="M3625 2260 c-16 -7 -14 -9 13 -7 17 1 32 5 32 9 0 10 -19 9 -45 -2z"/>
<path d="M3360 2240 c0 -18 3 -19 20 -10 22 12 18 30 -6 30 -8 0 -14 -9 -14
-20z"/>
<path d="M6875 2249 c-4 -6 -5 -12 -2 -15 2 -3 7 2 10 11 7 17 1 20 -8 4z"/>
<path d="M6917 2207 c-10 -18 -31 -49 -47 -68 -17 -18 -30 -42 -30 -51 0 -10
-4 -18 -10 -18 -5 0 -10 -5 -10 -10 0 -6 -17 -35 -37 -66 -27 -40 -39 -51 -46
-42 -7 10 -8 9 -4 -2 3 -9 -9 -31 -25 -50 -16 -19 -27 -29 -23 -22 3 6 4 12 1
12 -3 0 -13 -15 -21 -32 -47 -103 -290 -379 -459 -523 -70 -61 -97 -87 -92
-93 14 -13 229 180 309 278 16 19 60 69 97 110 38 41 94 107 125 145 65 81
235 332 235 347 0 5 10 24 23 41 30 43 47 77 39 77 -4 0 -15 -15 -25 -33z"/>
<path d="M3542 2158 c5 -15 28 -23 28 -10 0 5 -7 13 -16 16 -10 4 -14 1 -12
-6z"/>
<path d="M2796 2102 c-3 -6 -1 -14 5 -17 15 -10 25 3 12 16 -7 7 -13 7 -17 1z"/>
<path d="M6760 2015 c0 -8 2 -15 4 -15 2 0 6 7 10 15 3 8 1 15 -4 15 -6 0 -10
-7 -10 -15z"/>
<path d="M6710 1980 c0 -5 4 -10 9 -10 6 0 13 5 16 10 3 6 -1 10 -9 10 -9 0
-16 -4 -16 -10z"/>
<path d="M3218 1963 c-22 -24 -22 -29 0 -51 23 -23 92 -29 92 -8 0 15 -29 29
-51 24 -7 -2 -15 9 -18 26 -6 28 -6 28 -23 9z"/>
<path d="M1645 1950 c-3 -5 1 -10 10 -10 9 0 13 5 10 10 -3 6 -8 10 -10 10 -2
0 -7 -4 -10 -10z"/>
<path d="M5625 1900 c-3 -5 -1 -10 4 -10 6 0 11 5 11 10 0 6 -2 10 -4 10 -3 0
-8 -4 -11 -10z"/>
<path d="M1828 1824 c5 -9 7 -25 5 -35 -3 -11 0 -19 6 -19 6 0 11 -11 11 -23
0 -29 30 -59 48 -48 14 8 2 53 -16 65 -6 3 -8 15 -5 27 4 15 0 22 -16 26 -11
3 -21 9 -21 14 0 5 -5 9 -10 9 -7 0 -8 -6 -2 -16z"/>
<path d="M880 1800 c12 -16 24 -30 26 -30 3 0 -4 14 -16 30 -12 17 -24 30 -26
30 -3 0 4 -13 16 -30z"/>
<path d="M910 1756 c0 -2 8 -10 18 -17 15 -13 16 -12 3 4 -13 16 -21 21 -21
13z"/>
<path d="M955 1700 c10 -11 20 -20 23 -20 3 0 -3 9 -13 20 -10 11 -20 20 -23
20 -3 0 3 -9 13 -20z"/>
<path d="M995 1650 c10 -11 20 -20 23 -20 3 0 -3 9 -13 20 -10 11 -20 20 -23
20 -3 0 3 -9 13 -20z"/>
<path d="M1972 1595 c0 -16 2 -22 5 -12 2 9 2 23 0 30 -3 6 -5 -1 -5 -18z"/>
<path d="M1045 1590 c10 -11 20 -20 23 -20 3 0 -3 9 -13 20 -10 11 -20 20 -23
20 -3 0 3 -9 13 -20z"/>
<path d="M6574 1561 c4 -5 -7 -21 -24 -34 -16 -14 -30 -30 -30 -36 0 -5 -7
-14 -15 -18 -8 -5 -47 -40 -87 -79 -40 -39 -111 -104 -158 -144 -47 -41 -87
-77 -90 -80 -3 -3 -63 -51 -135 -106 -117 -91 -198 -147 -307 -213 -41 -25
-52 -39 -15 -20 52 27 310 202 383 260 123 98 282 240 359 321 142 148 150
158 131 158 -9 0 -15 -4 -12 -9z"/>
<path d="M1100 1525 c13 -14 26 -25 28 -25 3 0 -5 11 -18 25 -13 14 -26 25
-28 25 -3 0 5 -11 18 -25z"/>
<path d="M5830 1497 c-14 -6 -28 -15 -31 -20 -3 -5 -10 -8 -15 -8 -18 2 -64
-18 -64 -28 0 -6 -7 -11 -16 -11 -18 0 -14 -22 6 -28 8 -3 10 0 5 9 -6 11 -5
11 4 3 16 -15 81 1 99 24 6 9 12 12 12 6 0 -5 6 -2 13 7 7 9 18 18 25 20 10 3
10 7 0 21 -11 13 -18 14 -38 5z"/>
<path d="M2000 1478 c0 -8 7 -21 15 -28 19 -16 19 -1 0 24 -12 16 -15 17 -15
4z"/>
<path d="M1946 1466 c7 -18 32 -28 39 -16 4 6 -1 10 -9 10 -9 0 -16 5 -16 10
0 6 -4 10 -10 10 -5 0 -7 -6 -4 -14z"/>
<path d="M1235 1380 c44 -44 82 -80 85 -80 2 0 -31 36 -75 80 -44 44 -82 80
-85 80 -2 0 31 -36 75 -80z"/>
<path d="M2214 1339 c-3 -6 -2 -14 2 -19 14 -12 54 -22 54 -13 -1 25 -45 50
-56 32z"/>
<path d="M5458 1334 c-16 -8 -28 -10 -28 -5 0 15 -35 1 -48 -20 -12 -18 -10
-19 22 -16 19 2 49 16 66 31 35 29 30 33 -12 10z"/>
<path d="M1360 1267 c0 -2 15 -16 33 -33 l32 -29 -29 33 c-28 30 -36 37 -36
29z"/>
<path d="M6080 1220 c0 -5 5 -10 10 -10 6 0 10 5 10 10 0 6 -4 10 -10 10 -5 0
-10 -4 -10 -10z"/>
<path d="M1450 1186 c0 -2 8 -10 18 -17 15 -13 16 -12 3 4 -13 16 -21 21 -21
13z"/>
<path d="M6022 1178 c-19 -19 -14 -29 8 -16 20 13 27 28 12 28 -4 0 -13 -5
-20 -12z"/>
<path d="M2495 1169 c9 -14 -27 -49 -51 -49 -4 0 -1 -7 6 -15 15 -18 44 -21
34 -2 -6 9 -5 9 7 0 9 -7 34 -15 57 -18 34 -4 40 -2 36 10 -4 8 -2 15 3 15 5
0 10 6 10 14 0 8 -15 16 -38 20 -20 3 -39 13 -43 21 -3 8 -10 15 -16 15 -6 0
-8 -5 -5 -11z"/>
<path d="M2395 1120 c3 -5 10 -10 16 -10 5 0 9 5 9 10 0 6 -7 10 -16 10 -8 0
-12 -4 -9 -10z"/>
<path d="M5654 804 c-18 -14 -18 -15 4 -4 12 6 22 13 22 15 0 8 -5 6 -26 -11z"/>
<path d="M5568 759 c-21 -11 -38 -22 -38 -24 0 -3 18 4 40 15 22 11 40 23 40
25 0 7 0 7 -42 -16z"/>
<path d="M5380 665 c-14 -8 -20 -14 -15 -14 6 0 21 6 35 14 14 8 21 14 15 14
-5 0 -21 -6 -35 -14z"/>
<path d="M3153 633 c9 -2 23 -2 30 0 6 3 -1 5 -18 5 -16 0 -22 -2 -12 -5z"/>
<path d="M5210 590 c-8 -5 -10 -10 -5 -10 6 0 17 5 25 10 8 5 11 10 5 10 -5 0
-17 -5 -25 -10z"/>
<path d="M5160 570 c-8 -5 -10 -10 -5 -10 6 0 17 5 25 10 8 5 11 10 5 10 -5 0
-17 -5 -25 -10z"/>
<path d="M2938 423 c7 -3 16 -2 19 1 4 3 -2 6 -13 5 -11 0 -14 -3 -6 -6z"/>
<path d="M4708 423 c7 -3 16 -2 19 1 4 3 -2 6 -13 5 -11 0 -14 -3 -6 -6z"/>
<path d="M4658 413 c7 -3 16 -2 19 1 4 3 -2 6 -13 5 -11 0 -14 -3 -6 -6z"/>
<path d="M3028 403 c7 -3 16 -2 19 1 4 3 -2 6 -13 5 -11 0 -14 -3 -6 -6z"/>
<path d="M4618 403 c7 -3 16 -2 19 1 4 3 -2 6 -13 5 -11 0 -14 -3 -6 -6z"/>
<path d="M4568 393 c7 -3 16 -2 19 1 4 3 -2 6 -13 5 -11 0 -14 -3 -6 -6z"/>
<path d="M4518 383 c7 -3 16 -2 19 1 4 3 -2 6 -13 5 -11 0 -14 -3 -6 -6z"/>
<path d="M4468 373 c7 -3 16 -2 19 1 4 3 -2 6 -13 5 -11 0 -14 -3 -6 -6z"/>
<path d="M3238 363 c7 -3 16 -2 19 1 4 3 -2 6 -13 5 -11 0 -14 -3 -6 -6z"/>
<path d="M4408 363 c7 -3 16 -2 19 1 4 3 -2 6 -13 5 -11 0 -14 -3 -6 -6z"/>
<path d="M3298 353 c6 -2 18 -2 25 0 6 3 1 5 -13 5 -14 0 -19 -2 -12 -5z"/>
<path d="M4338 353 c6 -2 18 -2 25 0 6 3 1 5 -13 5 -14 0 -19 -2 -12 -5z"/>
<path d="M3373 343 c9 -2 23 -2 30 0 6 3 -1 5 -18 5 -16 0 -22 -2 -12 -5z"/>
<path d="M4253 343 c9 -2 25 -2 35 0 9 3 1 5 -18 5 -19 0 -27 -2 -17 -5z"/>
<path d="M3453 333 c15 -2 37 -2 50 0 12 2 0 4 -28 4 -27 0 -38 -2 -22 -4z"/>
<path d="M4158 333 c12 -2 32 -2 45 0 12 2 2 4 -23 4 -25 0 -35 -2 -22 -4z"/>
<path d="M3588 323 c18 -2 45 -2 60 0 15 2 0 4 -33 4 -33 0 -45 -2 -27 -4z"/>
<path d="M4017 323 c18 -2 50 -2 70 0 21 2 7 4 -32 4 -38 0 -55 -2 -38 -4z"/>
</g>
</svg>
