<?xml version="1.0" standalone="no"?>
<!DOCTYPE svg PUBLIC "-//W3C//DTD SVG 20010904//EN"
 "http://www.w3.org/TR/2001/REC-SVG-20010904/DTD/svg10.dtd">
<svg version="1.0" xmlns="http://www.w3.org/2000/svg"
 width="1866.000000pt" height="1866.000000pt" viewBox="0 0 1866.000000 1866.000000"
 preserveAspectRatio="xMidYMid meet">
<metadata>
Created by potrace 1.11, written by Peter Selinger 2001-2013
</metadata>
<g transform="translate(0.000000,1866.000000) scale(0.100000,-0.100000)"
fill="#000000" stroke="none">
<path d="M8895 18229 c-2004 -102 -3858 -856 -5390 -2189 -178 -155 -663 -643
-818 -821 -1095 -1267 -1793 -2743 -2062 -4364 -88 -532 -120 -992 -112 -1585
5 -374 11 -471 42 -785 139 -1379 627 -2745 1400 -3921 1388 -2111 3613 -3531
6100 -3893 479 -70 886 -95 1405 -88 403 6 628 21 970 63 1773 219 3393 951
4765 2153 170 148 628 609 779 783 684 786 1199 1626 1571 2562 726 1826 822
3852 270 5746 -419 1439 -1215 2766 -2291 3820 -1470 1440 -3354 2311 -5399
2495 -377 33 -861 43 -1230 24z m791 -2804 c184 -19 238 -28 384 -65 401 -101
791 -285 1107 -522 126 -94 373 -335 476 -463 159 -197 344 -505 446 -740 68
-155 133 -347 175 -516 75 -295 69 -183 76 -1632 4 -1073 7 -1309 18 -1316 8
-4 50 -11 95 -15 177 -14 383 -72 552 -156 141 -71 272 -167 401 -295 200
-200 315 -389 392 -650 l27 -90 3 -2173 c3 -2465 10 -2248 -82 -2473 -173
-426 -566 -777 -1001 -895 -60 -16 -141 -28 -240 -35 -100 -6 -1199 -9 -3290
-7 l-3140 4 -100 22 c-519 119 -981 562 -1118 1074 l-22 83 0 2200 0 2200 27
95 c68 244 185 441 375 634 141 142 333 278 478 339 157 65 414 127 530 127
27 0 47 6 56 17 12 13 15 237 20 1327 6 1412 2 1301 58 1556 71 320 203 653
368 925 164 270 297 439 505 641 348 337 778 577 1284 718 319 88 763 119
1140 81z"/>
<path d="M8990 13900 c-130 -29 -204 -55 -335 -121 -386 -192 -656 -521 -769
-934 -23 -86 -31 -130 -58 -345 -18 -142 -23 -2087 -6 -2230 l13 -105 90 -6
c50 -4 686 -7 1415 -7 729 0 1366 3 1415 7 l90 6 12 95 c13 113 17 1944 3
2080 -36 370 -51 465 -91 585 -69 207 -205 432 -349 575 -200 199 -489 354
-754 405 -121 23 -562 20 -676 -5z"/>
<path d="M9135 7865 c-129 -32 -237 -95 -335 -194 -80 -81 -143 -185 -175
-291 -38 -127 -38 -358 0 -475 37 -116 80 -183 217 -340 107 -123 101 -82 108
-740 5 -399 10 -588 19 -629 29 -138 96 -227 207 -277 56 -25 75 -29 158 -29
125 0 188 23 259 93 29 29 63 74 76 101 49 101 52 142 59 751 l7 570 26 55
c14 31 60 92 104 140 43 47 92 108 110 135 129 205 142 531 28 765 -38 79 -59
108 -128 176 -65 65 -100 91 -176 128 -52 26 -121 53 -154 61 -75 18 -339 18
-410 0z"/>
</g>
</svg>
